# xmcd
#
# Track frame offsets:
#	150
#	12091
#	25612
#	44961
#	53965
#	62119
#	78381
#	90187
#	118998
#	133090
#	143831
#	157310
#	166080
#	184213
#
# Disc length: 2682 seconds
#
# Revision: 3
# Processed by: cddbd v1.5.2PL0 Copyright (c) Steve Scherf et al.
# Submitted via: EZCDAudioConverter 2.1.7.1
#
DISCID=c00a780e
DTITLE=V/A - Madcap Laughs Again
DYEAR=2009
DGENRE=MOJO
TTITLE0=Field Music - Terrapin
TTITLE1=J Mascis - No Good Trying
TTITLE2=Besnard Lakes - Love You
TTITLE3=Race Horses - No Man's Land
TTITLE4=R.E.M. - Dark Globe
TTITLE5=Hush Arbors - Here I Go
TTITLE6=Captain Sensible - Octopus
TTITLE7=Hope Sandoval and The Warm Intentions - Golden Hair
TTITLE8=Hawkwind - Long Gone
TTITLE9=Skygreen Leopards - She Took A Long Cold Look
TTITLE10=Cate Le Bon - Feel
TTITLE11=Jennifer Gentle - If It's In You
TTITLE12=Marc Almond - Late Night
TTITLE13=Robyn Hitchcock - Dark Globe [Live]
EXTD=
EXTT0=
EXTT1=
EXTT2=
EXTT3=
EXTT4=
EXTT5=
EXTT6=
EXTT7=
EXTT8=
EXTT9=
EXTT10=
EXTT11=
EXTT12=
EXTT13=
PLAYORDER=
